# xmcd
#
# Track frame offsets:
#	150
#	14262
#	32994
#	44908
#	69732
#	86733
#	101526
#	117723
#	133416
#	157059
#
# Disc length: 2295 seconds
#
# Revision: 0
# Processed by: cddbd v1.5.1PL2 Copyright (c) Steve Scherf et al.
# Submitted via: audiograbber 1.83.01
#
DISCID=9a08f50a
DTITLE=Johnny Mazcko - Somewhere Better Than Here
DYEAR=2004
DGENRE=Blues
TTITLE0=Somewhere Better Than Here
TTITLE1=Baltimore Avenue
TTITLE2=Tijuana, City of Sin
TTITLE3=My Favorite Drug
TTITLE4=I Can't Write a Love Song
TTITLE5=War
TTITLE6=Trampoline
TTITLE7=Tijuana, City of Sin
TTITLE8=Night Lights
TTITLE9=Blue Eyed Girl
EXTD=Guest appearance by Dan Barrett, Laura Regan, Cynthia Gilham, Jack Zimnavo
EXTD=da, Dave Coffin, and Mike Mathieu. All songs written by Johnny Mazcko.
EXTT0=
EXTT1=
EXTT2=
EXTT3=
EXTT4=
EXTT5=
EXTT6=
EXTT7=
EXTT8=
EXTT9=
PLAYORDER=
